<?xml version="1.0" encoding="iso-8859-1"?>
<!-- Generator: Adobe Illustrator 19.0.0, SVG Export Plug-In . SVG Version: 6.00 Build 0)  -->
<svg version="1.1" id="Layer_1" xmlns="http://www.w3.org/2000/svg" xmlns:xlink="http://www.w3.org/1999/xlink" x="0px" y="0px"
	 viewBox="0 0 512 512" style="enable-background:new 0 0 512 512;" xml:space="preserve">
<g>
	<g>
		<path d="M373.269,435.353h-6.35c-53.015-87.655-53.979-93.791-42.358-195.78c10.466-2.374,18.305-11.744,18.305-22.918v-24.527
			c0-12.961-10.545-23.505-23.505-23.505h-7.389l14.833-37.083c1.259-3.149,0.875-6.716-1.026-9.525
			c-1.901-2.807-5.071-4.49-8.463-4.49h-30.659V94.531h20.439c5.644,0,10.22-4.576,10.22-10.22V43.433
			c0-5.643-4.575-10.22-10.22-10.22h-20.439V10.22c0-5.643-4.575-10.22-10.22-10.22H235.56c-5.644,0-10.22,4.576-10.22,10.22v22.994
			h-20.439c-5.644,0-10.22,4.576-10.22,10.22v40.878c0,5.643,4.575,10.22,10.22,10.22h20.439v22.994h-30.659
			c-3.391,0-6.561,1.682-8.463,4.49c-1.901,2.808-2.285,6.376-1.026,9.525l14.835,37.083h-7.389
			c-12.96,0-23.505,10.544-23.505,23.505v24.527c0,11.174,7.839,20.544,18.304,22.918c11.621,101.988,10.658,108.125-42.357,195.78
			h-6.35c-17.046,0-30.914,13.868-30.914,30.914v14.818c0,17.046,13.868,30.914,30.914,30.914h234.539
			c17.046,0,30.914-13.868,30.914-30.914v-14.818C404.184,449.221,390.316,435.353,373.269,435.353z M215.122,74.092V53.653h20.439
			c5.644,0,10.22-4.576,10.22-10.22V20.439h20.439v22.994c0,5.643,4.575,10.22,10.22,10.22h20.439v20.439h-20.439
			c-5.644,0-10.22,4.576-10.22,10.22v33.214H245.78V84.311c0-5.643-4.575-10.22-10.22-10.22H215.122z M302.223,137.964
			l-12.263,30.659h-67.918l-12.263-30.659H302.223z M192.639,219.721c-1.69,0-3.066-1.376-3.066-3.066v-24.527
			c0-1.69,1.376-3.066,3.066-3.066h126.723c1.69,0,3.066,1.376,3.066,3.066v24.527c0,1.69-1.376,3.066-3.066,3.066H192.639z
			 M213.022,289.725h38.38c5.644,0,10.22-4.576,10.22-10.22s-4.575-10.22-10.22-10.22h-40.163
			c-0.884-8.851-1.954-18.493-3.162-29.126h95.847c-8.219,72.36-10.062,98.934,9.654,141.541h-58.089
			c-5.644,0-10.22,4.576-10.22,10.22s4.575,10.22,10.22,10.22h68.454c5.363,9.869,11.693,20.764,19.133,33.214H168.924
			C208.784,368.647,217.035,346.318,213.022,289.725z M383.744,481.086c0,5.776-4.699,10.475-10.475,10.475H138.731
			c-5.776,0-10.475-4.699-10.475-10.475v-14.818c0-5.776,4.699-10.475,10.475-10.475h234.539c5.776,0,10.475,4.699,10.475,10.475
			V481.086z"/>
	</g>
</g>
<g>
</g>
<g>
</g>
<g>
</g>
<g>
</g>
<g>
</g>
<g>
</g>
<g>
</g>
<g>
</g>
<g>
</g>
<g>
</g>
<g>
</g>
<g>
</g>
<g>
</g>
<g>
</g>
<g>
</g>
</svg>
