<?xml version="1.0" encoding="iso-8859-1"?>
<!-- Generator: Adobe Illustrator 19.0.0, SVG Export Plug-In . SVG Version: 6.00 Build 0)  -->
<svg version="1.1" id="Layer_1" xmlns="http://www.w3.org/2000/svg" xmlns:xlink="http://www.w3.org/1999/xlink" x="0px" y="0px"
	 viewBox="0 0 511.999 511.999" style="enable-background:new 0 0 511.999 511.999;" xml:space="preserve">
<g>
	<g>
		<path d="M421.443,430.589L421.443,430.589c-1.017-28.288-24.334-50.991-52.865-50.991H357.83V168.356l41.513-51.471V0H112.656
			v116.885l41.513,51.471v211.241h-10.748c-28.532,0-51.849,22.703-52.865,50.992H60.611v81.409h390.776v-81.409H421.443z
			 M143.073,96.308V30.417h33.649v32.941h30.417V30.417h33.651v32.941h30.417V30.417h33.649v32.941h30.417V30.417h33.651v65.891
			H143.073z M176.65,147.778l-16.981-21.054h192.659l-16.981,21.054H176.65z M327.411,178.195v201.402H184.586V178.195H327.411z
			 M143.42,410.014h10.748h203.66h10.748c11.758,0,21.438,9.066,22.415,20.575H121.005
			C121.983,419.081,131.663,410.014,143.42,410.014z M420.971,481.583h-0.001H91.028v-20.575h329.942V481.583z"/>
	</g>
</g>
<g>
</g>
<g>
</g>
<g>
</g>
<g>
</g>
<g>
</g>
<g>
</g>
<g>
</g>
<g>
</g>
<g>
</g>
<g>
</g>
<g>
</g>
<g>
</g>
<g>
</g>
<g>
</g>
<g>
</g>
</svg>
