<?xml version="1.0" encoding="iso-8859-1"?>
<!-- Generator: Adobe Illustrator 19.0.0, SVG Export Plug-In . SVG Version: 6.00 Build 0)  -->
<svg version="1.1" id="Layer_1" xmlns="http://www.w3.org/2000/svg" xmlns:xlink="http://www.w3.org/1999/xlink" x="0px" y="0px"
	 viewBox="0 0 512 512" style="enable-background:new 0 0 512 512;" xml:space="preserve">
<g>
	<g>
		<path d="M397.176,393.721H383.39v-33.54c0-9.22-7.475-16.696-16.696-16.696h-20.896l-6.852-58.169h3.135
			c9.22,0,16.696-7.475,16.696-16.696v-50.236c0-9.22-7.475-16.696-16.696-16.696h-12.997l-7.043-59.758
			c13.138-15.536,20.29-34.981,20.29-55.601C342.332,38.727,303.605,0,256.001,0S169.67,38.727,169.67,86.331
			c0,20.619,7.15,40.063,20.29,55.601l-7.043,59.759h-12.997c-9.22,0-16.696,7.475-16.696,16.696v50.236
			c0,9.22,7.475,16.696,16.696,16.696h3.135l-6.852,58.169h-20.896c-9.22,0-16.696,7.475-16.696,16.696v33.54h-13.786
			c-9.22,0-16.696,7.475-16.696,16.696v84.885c0,9.22,7.475,16.696,16.696,16.696h282.35c9.22,0,16.696-7.475,16.696-16.696v-84.887
			C413.872,401.197,406.397,393.721,397.176,393.721z M256.001,33.391c29.191,0,52.94,23.749,52.94,52.94
			c0,29.381-23.818,52.939-52.94,52.939c-29.088,0-52.94-23.52-52.94-52.939C203.063,57.14,226.81,33.391,256.001,33.391z
			 M295.463,201.69h-78.924l4.299-36.478c22.845,10.192,48.786,9.61,70.327,0L295.463,201.69z M186.615,235.081
			c11.835,0,133.636,0,138.772,0v16.845c-7.305,0-133.016,0-138.772,0V235.081z M312.176,343.486H199.826l6.853-58.169h98.646
			L312.176,343.486z M162.003,376.878c8.801,0,183.425,0,187.995,0v16.845H162.003V376.878z M380.481,478.609H131.522v-51.496
			c8.687,0,240.23,0,248.959,0V478.609z"/>
	</g>
</g>
<g>
</g>
<g>
</g>
<g>
</g>
<g>
</g>
<g>
</g>
<g>
</g>
<g>
</g>
<g>
</g>
<g>
</g>
<g>
</g>
<g>
</g>
<g>
</g>
<g>
</g>
<g>
</g>
<g>
</g>
</svg>
